<svg width="86" height="113" viewBox="0 0 86 113" fill="none" xmlns="http://www.w3.org/2000/svg">
<g opacity="0.3">
<mask id="mask0_60_1416" style="mask-type:alpha" maskUnits="userSpaceOnUse" x="14" y="0" width="12" height="11">
<path d="M19.7909 10.425C22.6784 10.425 25.0193 8.09121 25.0193 5.21245C25.0193 2.33368 22.6784 0 19.7909 0C16.9033 0 14.5625 2.33368 14.5625 5.21245C14.5625 8.09121 16.9033 10.425 19.7909 10.425Z" fill="url(#paint0_linear_60_1416)"/>
</mask>
<g mask="url(#mask0_60_1416)">
<path d="M19.7909 10.425C22.6784 10.425 25.0193 8.09121 25.0193 5.21245C25.0193 2.33368 22.6784 0 19.7909 0C16.9033 0 14.5625 2.33368 14.5625 5.21245C14.5625 8.09121 16.9033 10.425 19.7909 10.425Z" fill="url(#paint1_linear_60_1416)"/>
</g>
<mask id="mask1_60_1416" style="mask-type:alpha" maskUnits="userSpaceOnUse" x="44" y="0" width="12" height="11">
<path d="M50.0712 10.425C52.9587 10.425 55.2996 8.09121 55.2996 5.21245C55.2996 2.33368 52.9587 0 50.0712 0C47.1836 0 44.8428 2.33368 44.8428 5.21245C44.8428 8.09121 47.1836 10.425 50.0712 10.425Z" fill="url(#paint2_linear_60_1416)"/>
</mask>
<g mask="url(#mask1_60_1416)">
<path d="M50.0712 10.425C52.9587 10.425 55.2996 8.09121 55.2996 5.21245C55.2996 2.33368 52.9587 0 50.0712 0C47.1836 0 44.8428 2.33368 44.8428 5.21245C44.8428 8.09121 47.1836 10.425 50.0712 10.425Z" fill="url(#paint3_linear_60_1416)"/>
</g>
<mask id="mask2_60_1416" style="mask-type:alpha" maskUnits="userSpaceOnUse" x="75" y="0" width="11" height="11">
<path d="M80.3524 10.425C83.24 10.425 85.5808 8.09121 85.5808 5.21245C85.5808 2.33368 83.24 0 80.3524 0C77.4648 0 75.124 2.33368 75.124 5.21245C75.124 8.09121 77.4648 10.425 80.3524 10.425Z" fill="url(#paint4_linear_60_1416)"/>
</mask>
<g mask="url(#mask2_60_1416)">
<path d="M80.3524 10.425C83.24 10.425 85.5808 8.09121 85.5808 5.21245C85.5808 2.33368 83.24 0 80.3524 0C77.4648 0 75.124 2.33368 75.124 5.21245C75.124 8.09121 77.4648 10.425 80.3524 10.425Z" fill="url(#paint5_linear_60_1416)"/>
</g>
<mask id="mask3_60_1416" style="mask-type:alpha" maskUnits="userSpaceOnUse" x="14" y="25" width="12" height="11">
<path d="M19.7909 35.8497C22.6784 35.8497 25.0193 33.516 25.0193 30.6372C25.0193 27.7585 22.6784 25.4248 19.7909 25.4248C16.9033 25.4248 14.5625 27.7585 14.5625 30.6372C14.5625 33.516 16.9033 35.8497 19.7909 35.8497Z" fill="url(#paint6_linear_60_1416)"/>
</mask>
<g mask="url(#mask3_60_1416)">
<path d="M19.7909 35.8497C22.6784 35.8497 25.0193 33.516 25.0193 30.6372C25.0193 27.7585 22.6784 25.4248 19.7909 25.4248C16.9033 25.4248 14.5625 27.7585 14.5625 30.6372C14.5625 33.516 16.9033 35.8497 19.7909 35.8497Z" fill="url(#paint7_linear_60_1416)"/>
</g>
<mask id="mask4_60_1416" style="mask-type:alpha" maskUnits="userSpaceOnUse" x="44" y="25" width="12" height="11">
<path d="M50.0712 35.8497C52.9587 35.8497 55.2996 33.516 55.2996 30.6372C55.2996 27.7585 52.9587 25.4248 50.0712 25.4248C47.1836 25.4248 44.8428 27.7585 44.8428 30.6372C44.8428 33.516 47.1836 35.8497 50.0712 35.8497Z" fill="url(#paint8_linear_60_1416)"/>
</mask>
<g mask="url(#mask4_60_1416)">
<path d="M50.0712 35.8497C52.9587 35.8497 55.2996 33.516 55.2996 30.6372C55.2996 27.7585 52.9587 25.4248 50.0712 25.4248C47.1836 25.4248 44.8428 27.7585 44.8428 30.6372C44.8428 33.516 47.1836 35.8497 50.0712 35.8497Z" fill="url(#paint9_linear_60_1416)"/>
</g>
<mask id="mask5_60_1416" style="mask-type:alpha" maskUnits="userSpaceOnUse" x="75" y="25" width="11" height="11">
<path d="M80.3524 35.8497C83.24 35.8497 85.5808 33.516 85.5808 30.6372C85.5808 27.7585 83.24 25.4248 80.3524 25.4248C77.4648 25.4248 75.124 27.7585 75.124 30.6372C75.124 33.516 77.4648 35.8497 80.3524 35.8497Z" fill="url(#paint10_linear_60_1416)"/>
</mask>
<g mask="url(#mask5_60_1416)">
<path d="M80.3524 35.8497C83.24 35.8497 85.5808 33.516 85.5808 30.6372C85.5808 27.7585 83.24 25.4248 80.3524 25.4248C77.4648 25.4248 75.124 27.7585 75.124 30.6372C75.124 33.516 77.4648 35.8497 80.3524 35.8497Z" fill="url(#paint11_linear_60_1416)"/>
</g>
<mask id="mask6_60_1416" style="mask-type:alpha" maskUnits="userSpaceOnUse" x="14" y="50" width="12" height="12">
<path d="M19.7909 61.2746C22.6784 61.2746 25.0193 58.9409 25.0193 56.0621C25.0193 53.1833 22.6784 50.8496 19.7909 50.8496C16.9033 50.8496 14.5625 53.1833 14.5625 56.0621C14.5625 58.9409 16.9033 61.2746 19.7909 61.2746Z" fill="url(#paint12_linear_60_1416)"/>
</mask>
<g mask="url(#mask6_60_1416)">
<path d="M19.7909 61.2746C22.6784 61.2746 25.0193 58.9409 25.0193 56.0621C25.0193 53.1833 22.6784 50.8496 19.7909 50.8496C16.9033 50.8496 14.5625 53.1833 14.5625 56.0621C14.5625 58.9409 16.9033 61.2746 19.7909 61.2746Z" fill="url(#paint13_linear_60_1416)"/>
</g>
<mask id="mask7_60_1416" style="mask-type:alpha" maskUnits="userSpaceOnUse" x="44" y="50" width="12" height="12">
<path d="M50.0712 61.2746C52.9587 61.2746 55.2996 58.9409 55.2996 56.0621C55.2996 53.1833 52.9587 50.8496 50.0712 50.8496C47.1836 50.8496 44.8428 53.1833 44.8428 56.0621C44.8428 58.9409 47.1836 61.2746 50.0712 61.2746Z" fill="url(#paint14_linear_60_1416)"/>
</mask>
<g mask="url(#mask7_60_1416)">
<path d="M50.0712 61.2746C52.9587 61.2746 55.2996 58.9409 55.2996 56.0621C55.2996 53.1833 52.9587 50.8496 50.0712 50.8496C47.1836 50.8496 44.8428 53.1833 44.8428 56.0621C44.8428 58.9409 47.1836 61.2746 50.0712 61.2746Z" fill="url(#paint15_linear_60_1416)"/>
</g>
<mask id="mask8_60_1416" style="mask-type:alpha" maskUnits="userSpaceOnUse" x="75" y="50" width="11" height="12">
<path d="M80.3524 61.2746C83.24 61.2746 85.5808 58.9409 85.5808 56.0621C85.5808 53.1833 83.24 50.8496 80.3524 50.8496C77.4648 50.8496 75.124 53.1833 75.124 56.0621C75.124 58.9409 77.4648 61.2746 80.3524 61.2746Z" fill="url(#paint16_linear_60_1416)"/>
</mask>
<g mask="url(#mask8_60_1416)">
<path d="M80.3524 61.2746C83.24 61.2746 85.5808 58.9409 85.5808 56.0621C85.5808 53.1833 83.24 50.8496 80.3524 50.8496C77.4648 50.8496 75.124 53.1833 75.124 56.0621C75.124 58.9409 77.4648 61.2746 80.3524 61.2746Z" fill="url(#paint17_linear_60_1416)"/>
</g>
<mask id="mask9_60_1416" style="mask-type:alpha" maskUnits="userSpaceOnUse" x="14" y="76" width="12" height="11">
<path d="M19.7909 86.6994C22.6784 86.6994 25.0193 84.3656 25.0193 81.4869C25.0193 78.6081 22.6784 76.2744 19.7909 76.2744C16.9033 76.2744 14.5625 78.6081 14.5625 81.4869C14.5625 84.3656 16.9033 86.6994 19.7909 86.6994Z" fill="url(#paint18_linear_60_1416)"/>
</mask>
<g mask="url(#mask9_60_1416)">
<path d="M19.7909 86.6994C22.6784 86.6994 25.0193 84.3656 25.0193 81.4869C25.0193 78.6081 22.6784 76.2744 19.7909 76.2744C16.9033 76.2744 14.5625 78.6081 14.5625 81.4869C14.5625 84.3656 16.9033 86.6994 19.7909 86.6994Z" fill="url(#paint19_linear_60_1416)"/>
</g>
<mask id="mask10_60_1416" style="mask-type:alpha" maskUnits="userSpaceOnUse" x="44" y="76" width="12" height="11">
<path d="M50.0712 86.6994C52.9587 86.6994 55.2996 84.3656 55.2996 81.4869C55.2996 78.6081 52.9587 76.2744 50.0712 76.2744C47.1836 76.2744 44.8428 78.6081 44.8428 81.4869C44.8428 84.3656 47.1836 86.6994 50.0712 86.6994Z" fill="url(#paint20_linear_60_1416)"/>
</mask>
<g mask="url(#mask10_60_1416)">
<path d="M50.0712 86.6994C52.9587 86.6994 55.2996 84.3656 55.2996 81.4869C55.2996 78.6081 52.9587 76.2744 50.0712 76.2744C47.1836 76.2744 44.8428 78.6081 44.8428 81.4869C44.8428 84.3656 47.1836 86.6994 50.0712 86.6994Z" fill="url(#paint21_linear_60_1416)"/>
</g>
<mask id="mask11_60_1416" style="mask-type:alpha" maskUnits="userSpaceOnUse" x="75" y="76" width="11" height="11">
<path d="M80.3524 86.6994C83.24 86.6994 85.5808 84.3656 85.5808 81.4869C85.5808 78.6081 83.24 76.2744 80.3524 76.2744C77.4648 76.2744 75.124 78.6081 75.124 81.4869C75.124 84.3656 77.4648 86.6994 80.3524 86.6994Z" fill="url(#paint22_linear_60_1416)"/>
</mask>
<g mask="url(#mask11_60_1416)">
<path d="M80.3524 86.6994C83.24 86.6994 85.5808 84.3656 85.5808 81.4869C85.5808 78.6081 83.24 76.2744 80.3524 76.2744C77.4648 76.2744 75.124 78.6081 75.124 81.4869C75.124 84.3656 77.4648 86.6994 80.3524 86.6994Z" fill="url(#paint23_linear_60_1416)"/>
</g>
<mask id="mask12_60_1416" style="mask-type:alpha" maskUnits="userSpaceOnUse" x="14" y="101" width="12" height="12">
<path d="M19.7909 112.124C22.6784 112.124 25.0193 109.79 25.0193 106.912C25.0193 104.033 22.6784 101.699 19.7909 101.699C16.9033 101.699 14.5625 104.033 14.5625 106.912C14.5625 109.79 16.9033 112.124 19.7909 112.124Z" fill="url(#paint24_linear_60_1416)"/>
</mask>
<g mask="url(#mask12_60_1416)">
<path d="M19.7909 112.124C22.6784 112.124 25.0193 109.79 25.0193 106.912C25.0193 104.033 22.6784 101.699 19.7909 101.699C16.9033 101.699 14.5625 104.033 14.5625 106.912C14.5625 109.79 16.9033 112.124 19.7909 112.124Z" fill="url(#paint25_linear_60_1416)"/>
</g>
<mask id="mask13_60_1416" style="mask-type:alpha" maskUnits="userSpaceOnUse" x="44" y="101" width="12" height="12">
<path d="M50.0712 112.124C52.9587 112.124 55.2996 109.79 55.2996 106.912C55.2996 104.033 52.9587 101.699 50.0712 101.699C47.1836 101.699 44.8428 104.033 44.8428 106.912C44.8428 109.79 47.1836 112.124 50.0712 112.124Z" fill="url(#paint26_linear_60_1416)"/>
</mask>
<g mask="url(#mask13_60_1416)">
<path d="M50.0712 112.124C52.9587 112.124 55.2996 109.79 55.2996 106.912C55.2996 104.033 52.9587 101.699 50.0712 101.699C47.1836 101.699 44.8428 104.033 44.8428 106.912C44.8428 109.79 47.1836 112.124 50.0712 112.124Z" fill="url(#paint27_linear_60_1416)"/>
</g>
<mask id="mask14_60_1416" style="mask-type:alpha" maskUnits="userSpaceOnUse" x="75" y="101" width="11" height="12">
<path d="M80.3524 112.124C83.24 112.124 85.5808 109.79 85.5808 106.912C85.5808 104.033 83.24 101.699 80.3524 101.699C77.4648 101.699 75.124 104.033 75.124 106.912C75.124 109.79 77.4648 112.124 80.3524 112.124Z" fill="url(#paint28_linear_60_1416)"/>
</mask>
<g mask="url(#mask14_60_1416)">
<path d="M80.3524 112.124C83.24 112.124 85.5808 109.79 85.5808 106.912C85.5808 104.033 83.24 101.699 80.3524 101.699C77.4648 101.699 75.124 104.033 75.124 106.912C75.124 109.79 77.4648 112.124 80.3524 112.124Z" fill="url(#paint29_linear_60_1416)"/>
</g>
</g>
<defs>
<linearGradient id="paint0_linear_60_1416" x1="61.4053" y1="110.551" x2="-9.99629" y2="-71.2526" gradientUnits="userSpaceOnUse">
<stop/>
<stop offset="1" stop-color="white"/>
</linearGradient>
<linearGradient id="paint1_linear_60_1416" x1="61.4053" y1="110.551" x2="-9.99629" y2="-71.2526" gradientUnits="userSpaceOnUse">
<stop stop-color="#00C342"/>
<stop offset="1" stop-color="#01C340"/>
</linearGradient>
<linearGradient id="paint2_linear_60_1416" x1="87.6087" y1="100.259" x2="16.2071" y2="-81.5444" gradientUnits="userSpaceOnUse">
<stop/>
<stop offset="1" stop-color="white"/>
</linearGradient>
<linearGradient id="paint3_linear_60_1416" x1="87.6087" y1="100.259" x2="16.2071" y2="-81.5444" gradientUnits="userSpaceOnUse">
<stop stop-color="#00C342"/>
<stop offset="1" stop-color="#01C340"/>
</linearGradient>
<linearGradient id="paint4_linear_60_1416" x1="113.813" y1="89.9679" x2="42.4116" y2="-91.8359" gradientUnits="userSpaceOnUse">
<stop/>
<stop offset="1" stop-color="white"/>
</linearGradient>
<linearGradient id="paint5_linear_60_1416" x1="113.813" y1="89.9679" x2="42.4116" y2="-91.8359" gradientUnits="userSpaceOnUse">
<stop stop-color="#00C342"/>
<stop offset="1" stop-color="#01C340"/>
</linearGradient>
<linearGradient id="paint6_linear_60_1416" x1="52.4628" y1="113.316" x2="-18.9376" y2="-68.4865" gradientUnits="userSpaceOnUse">
<stop/>
<stop offset="1" stop-color="white"/>
</linearGradient>
<linearGradient id="paint7_linear_60_1416" x1="52.4628" y1="113.316" x2="-18.9376" y2="-68.4865" gradientUnits="userSpaceOnUse">
<stop stop-color="#00C342"/>
<stop offset="1" stop-color="#01C340"/>
</linearGradient>
<linearGradient id="paint8_linear_60_1416" x1="78.6663" y1="103.025" x2="7.26591" y2="-78.7779" gradientUnits="userSpaceOnUse">
<stop/>
<stop offset="1" stop-color="white"/>
</linearGradient>
<linearGradient id="paint9_linear_60_1416" x1="78.6663" y1="103.025" x2="7.26591" y2="-78.7779" gradientUnits="userSpaceOnUse">
<stop stop-color="#00C342"/>
<stop offset="1" stop-color="#01C340"/>
</linearGradient>
<linearGradient id="paint10_linear_60_1416" x1="104.871" y1="92.7332" x2="33.4705" y2="-89.0693" gradientUnits="userSpaceOnUse">
<stop/>
<stop offset="1" stop-color="white"/>
</linearGradient>
<linearGradient id="paint11_linear_60_1416" x1="104.871" y1="92.7332" x2="33.4705" y2="-89.0693" gradientUnits="userSpaceOnUse">
<stop stop-color="#00C342"/>
<stop offset="1" stop-color="#01C340"/>
</linearGradient>
<linearGradient id="paint12_linear_60_1416" x1="43.5204" y1="116.137" x2="-27.8811" y2="-65.6667" gradientUnits="userSpaceOnUse">
<stop/>
<stop offset="1" stop-color="white"/>
</linearGradient>
<linearGradient id="paint13_linear_60_1416" x1="43.5204" y1="116.137" x2="-27.8811" y2="-65.6667" gradientUnits="userSpaceOnUse">
<stop stop-color="#00C342"/>
<stop offset="1" stop-color="#01C340"/>
</linearGradient>
<linearGradient id="paint14_linear_60_1416" x1="69.7239" y1="105.845" x2="-1.6777" y2="-75.9584" gradientUnits="userSpaceOnUse">
<stop/>
<stop offset="1" stop-color="white"/>
</linearGradient>
<linearGradient id="paint15_linear_60_1416" x1="69.7239" y1="105.845" x2="-1.6777" y2="-75.9584" gradientUnits="userSpaceOnUse">
<stop stop-color="#00C342"/>
<stop offset="1" stop-color="#01C340"/>
</linearGradient>
<linearGradient id="paint16_linear_60_1416" x1="95.9285" y1="95.554" x2="24.5268" y2="-86.2499" gradientUnits="userSpaceOnUse">
<stop/>
<stop offset="1" stop-color="white"/>
</linearGradient>
<linearGradient id="paint17_linear_60_1416" x1="95.9285" y1="95.554" x2="24.5268" y2="-86.2499" gradientUnits="userSpaceOnUse">
<stop stop-color="#00C342"/>
<stop offset="1" stop-color="#01C340"/>
</linearGradient>
<linearGradient id="paint18_linear_60_1416" x1="34.578" y1="118.903" x2="-36.8235" y2="-62.9008" gradientUnits="userSpaceOnUse">
<stop/>
<stop offset="1" stop-color="white"/>
</linearGradient>
<linearGradient id="paint19_linear_60_1416" x1="34.578" y1="118.903" x2="-36.8235" y2="-62.9008" gradientUnits="userSpaceOnUse">
<stop stop-color="#00C342"/>
<stop offset="1" stop-color="#01C340"/>
</linearGradient>
<linearGradient id="paint20_linear_60_1416" x1="60.7816" y1="108.611" x2="-10.6201" y2="-73.1924" gradientUnits="userSpaceOnUse">
<stop/>
<stop offset="1" stop-color="white"/>
</linearGradient>
<linearGradient id="paint21_linear_60_1416" x1="60.7816" y1="108.611" x2="-10.6201" y2="-73.1924" gradientUnits="userSpaceOnUse">
<stop stop-color="#00C342"/>
<stop offset="1" stop-color="#00C341"/>
</linearGradient>
<linearGradient id="paint22_linear_60_1416" x1="86.9861" y1="98.3199" x2="15.5845" y2="-83.484" gradientUnits="userSpaceOnUse">
<stop/>
<stop offset="1" stop-color="white"/>
</linearGradient>
<linearGradient id="paint23_linear_60_1416" x1="86.9861" y1="98.3199" x2="15.5845" y2="-83.484" gradientUnits="userSpaceOnUse">
<stop stop-color="#15B75A"/>
<stop offset="1" stop-color="#00C341"/>
</linearGradient>
<linearGradient id="paint24_linear_60_1416" x1="25.6357" y1="121.723" x2="-45.7659" y2="-60.0805" gradientUnits="userSpaceOnUse">
<stop/>
<stop offset="1" stop-color="white"/>
</linearGradient>
<linearGradient id="paint25_linear_60_1416" x1="25.6357" y1="121.723" x2="-45.7659" y2="-60.0805" gradientUnits="userSpaceOnUse">
<stop stop-color="#00C342"/>
<stop offset="1" stop-color="#01C340"/>
</linearGradient>
<linearGradient id="paint26_linear_60_1416" x1="51.8392" y1="111.432" x2="-19.5624" y2="-70.3722" gradientUnits="userSpaceOnUse">
<stop/>
<stop offset="1" stop-color="white"/>
</linearGradient>
<linearGradient id="paint27_linear_60_1416" x1="51.8392" y1="111.432" x2="-19.5624" y2="-70.3722" gradientUnits="userSpaceOnUse">
<stop stop-color="#01C340"/>
<stop offset="0.52" stop-color="#00C341"/>
<stop offset="1" stop-color="#00C342"/>
</linearGradient>
<linearGradient id="paint28_linear_60_1416" x1="78.0438" y1="101.14" x2="6.64213" y2="-80.6637" gradientUnits="userSpaceOnUse">
<stop/>
<stop offset="1" stop-color="white"/>
</linearGradient>
<linearGradient id="paint29_linear_60_1416" x1="78.0438" y1="101.14" x2="6.64213" y2="-80.6637" gradientUnits="userSpaceOnUse">
<stop stop-color="#00C342"/>
<stop offset="1" stop-color="#00C341"/>
</linearGradient>
</defs>
</svg>
